{
    "asset" : {
        "generator" : "Khronos glTF Blender I/O v1.3.48",
        "version" : "2.0"
    },
    "scene" : 0,
    "scenes" : [
        {
            "name" : "Scene",
            "nodes" : [
                0,
                1,
                2,
                3,
                4,
                5,
                6
            ]
        }
    ],
    "nodes" : [
        {
            "name" : "Light",
            "rotation" : [
                0.16907575726509094,
                0.7558803558349609,
                -0.27217137813568115,
                0.570947527885437
            ],
            "translation" : [
                4.076245307922363,
                5.903861999511719,
                -1.0054539442062378
            ]
        },
        {
            "name" : "Camera",
            "rotation" : [
                0.483536034822464,
                0.33687159419059753,
                -0.20870360732078552,
                0.7804827094078064
            ],
            "translation" : [
                7.358891487121582,
                4.958309173583984,
                6.925790786743164
            ]
        },
        {
            "mesh" : 0,
            "name" : "frame",
            "rotation" : [
                1,
                0,
                0,
                -1.747884843317834e-14
            ],
            "scale" : [
                1.187697172164917,
                1.187697172164917,
                1.187697172164917
            ],
            "translation" : [
                0.02543315291404724,
                0.23972941935062408,
                0.009577155113220215
            ]
        },
        {
            "mesh" : 1,
            "name" : "mattress",
            "rotation" : [
                0,
                0,
                -1,
                -1.6292068494294654e-07
            ],
            "scale" : [
                0.896113932132721,
                0.896113932132721,
                0.896113932132721
            ],
            "translation" : [
                0.022011607885360718,
                0.5479819178581238,
                -0.014258980751037598
            ]
        },
        {
            "mesh" : 2,
            "name" : "p1",
            "rotation" : [
                0.030061429366469383,
                0.021125108003616333,
                0.010936894454061985,
                0.9992649555206299
            ],
            "scale" : [
                0.7414915561676025,
                0.7414915561676025,
                0.7414915561676025
            ],
            "translation" : [
                0.35335665941238403,
                0.7771386504173279,
                -0.7363866567611694
            ]
        },
        {
            "mesh" : 3,
            "name" : "p2",
            "rotation" : [
                -0.0012835763627663255,
                -0.07169612497091293,
                -0.013097845949232578,
                0.99733966588974
            ],
            "scale" : [
                0.7414915561676025,
                0.7414915561676025,
                0.7414915561676025
            ],
            "translation" : [
                -0.348921537399292,
                0.7923964858055115,
                -0.6842626333236694
            ]
        },
        {
            "mesh" : 4,
            "name" : "Plane.001",
            "scale" : [
                0.925131618976593,
                0.925131618976593,
                0.925131618976593
            ],
            "translation" : [
                0.017054378986358643,
                0.7170047760009766,
                0.17205917835235596
            ]
        }
    ],
    "materials" : [
        {
            "doubleSided" : true,
            "emissiveFactor" : [
                0,
                0,
                0
            ],
            "name" : "Material.007",
            "pbrMetallicRoughness" : {
                "baseColorTexture" : {
                    "index" : 0,
                    "texCoord" : 0
                },
                "metallicFactor" : 0,
                "roughnessFactor" : 0.5
            }
        },
        {
            "doubleSided" : true,
            "emissiveFactor" : [
                0,
                0,
                0
            ],
            "name" : "Material.008",
            "pbrMetallicRoughness" : {
                "baseColorTexture" : {
                    "index" : 1,
                    "texCoord" : 0
                },
                "metallicFactor" : 0,
                "roughnessFactor" : 0.5
            }
        },
        {
            "doubleSided" : true,
            "emissiveFactor" : [
                0,
                0,
                0
            ],
            "name" : "Material.002",
            "pbrMetallicRoughness" : {
                "baseColorTexture" : {
                    "index" : 2,
                    "texCoord" : 0
                },
                "metallicFactor" : 0,
                "roughnessFactor" : 0.5
            }
        },
        {
            "doubleSided" : true,
            "emissiveFactor" : [
                0,
                0,
                0
            ],
            "name" : "Material.001",
            "pbrMetallicRoughness" : {
                "baseColorTexture" : {
                    "index" : 3,
                    "texCoord" : 0
                },
                "metallicFactor" : 0,
                "roughnessFactor" : 0.5
            }
        }
    ],
    "meshes" : [
        {
            "name" : "Cube.015",
            "primitives" : [
                {
                    "attributes" : {
                        "POSITION" : 0,
                        "NORMAL" : 1,
                        "TEXCOORD_0" : 2
                    },
                    "indices" : 3,
                    "material" : 0
                }
            ]
        },
        {
            "name" : "Cube.019",
            "primitives" : [
                {
                    "attributes" : {
                        "POSITION" : 4,
                        "NORMAL" : 5,
                        "TEXCOORD_0" : 6
                    },
                    "indices" : 7,
                    "material" : 1
                }
            ]
        },
        {
            "name" : "Cube.025",
            "primitives" : [
                {
                    "attributes" : {
                        "POSITION" : 8,
                        "NORMAL" : 9,
                        "TEXCOORD_0" : 10
                    },
                    "indices" : 11,
                    "material" : 2
                }
            ]
        },
        {
            "name" : "Cube.020",
            "primitives" : [
                {
                    "attributes" : {
                        "POSITION" : 12,
                        "NORMAL" : 13,
                        "TEXCOORD_0" : 14
                    },
                    "indices" : 11,
                    "material" : 2
                }
            ]
        },
        {
            "name" : "Plane.002",
            "primitives" : [
                {
                    "attributes" : {
                        "POSITION" : 15,
                        "NORMAL" : 16,
                        "TEXCOORD_0" : 17
                    },
                    "indices" : 18,
                    "material" : 3
                }
            ]
        }
    ],
    "textures" : [
        {
            "source" : 0
        },
        {
            "source" : 0
        },
        {
            "source" : 0
        },
        {
            "source" : 0
        }
    ],
    "images" : [
        {
            "mimeType" : "image/png",
            "name" : "atlas_furniture",
            "uri" : "textures/atlas_furniture.png"
        }
    ],
    "accessors" : [
        {
            "bufferView" : 0,
            "componentType" : 5126,
            "count" : 676,
            "max" : [
                0.7421714067459106,
                0.06693252921104431,
                0.9107844829559326
            ],
            "min" : [
                -0.7421714067459106,
                -0.19049999117851257,
                -0.9783630967140198
            ],
            "type" : "VEC3"
        },
        {
            "bufferView" : 1,
            "componentType" : 5126,
            "count" : 676,
            "type" : "VEC3"
        },
        {
            "bufferView" : 2,
            "componentType" : 5126,
            "count" : 676,
            "type" : "VEC2"
        },
        {
            "bufferView" : 3,
            "componentType" : 5123,
            "count" : 1014,
            "type" : "SCALAR"
        },
        {
            "bufferView" : 4,
            "componentType" : 5126,
            "count" : 1248,
            "max" : [
                0.9148135781288147,
                0.10214124619960785,
                1.177778959274292
            ],
            "min" : [
                -0.9148135781288147,
                -0.1979321539402008,
                -1.1777796745300293
            ],
            "type" : "VEC3"
        },
        {
            "bufferView" : 5,
            "componentType" : 5126,
            "count" : 1248,
            "type" : "VEC3"
        },
        {
            "bufferView" : 6,
            "componentType" : 5126,
            "count" : 1248,
            "type" : "VEC2"
        },
        {
            "bufferView" : 7,
            "componentType" : 5123,
            "count" : 1872,
            "type" : "SCALAR"
        },
        {
            "bufferView" : 8,
            "componentType" : 5126,
            "count" : 480,
            "max" : [
                0.45388972759246826,
                0.10802145302295685,
                0.29978176951408386
            ],
            "min" : [
                -0.45388972759246826,
                -0.10802148282527924,
                -0.29978176951408386
            ],
            "type" : "VEC3"
        },
        {
            "bufferView" : 9,
            "componentType" : 5126,
            "count" : 480,
            "type" : "VEC3"
        },
        {
            "bufferView" : 10,
            "componentType" : 5126,
            "count" : 480,
            "type" : "VEC2"
        },
        {
            "bufferView" : 11,
            "componentType" : 5123,
            "count" : 720,
            "type" : "SCALAR"
        },
        {
            "bufferView" : 12,
            "componentType" : 5126,
            "count" : 480,
            "max" : [
                0.45388972759246826,
                0.10802145302295685,
                0.29978176951408386
            ],
            "min" : [
                -0.45388972759246826,
                -0.10802148282527924,
                -0.29978176951408386
            ],
            "type" : "VEC3"
        },
        {
            "bufferView" : 13,
            "componentType" : 5126,
            "count" : 480,
            "type" : "VEC3"
        },
        {
            "bufferView" : 14,
            "componentType" : 5126,
            "count" : 480,
            "type" : "VEC2"
        },
        {
            "bufferView" : 15,
            "componentType" : 5126,
            "count" : 552,
            "max" : [
                0.916086733341217,
                0.048115357756614685,
                1.014540195465088
            ],
            "min" : [
                -0.9128660559654236,
                -0.2775147557258606,
                -0.8992864489555359
            ],
            "type" : "VEC3"
        },
        {
            "bufferView" : 16,
            "componentType" : 5126,
            "count" : 552,
            "type" : "VEC3"
        },
        {
            "bufferView" : 17,
            "componentType" : 5126,
            "count" : 552,
            "type" : "VEC2"
        },
        {
            "bufferView" : 18,
            "componentType" : 5123,
            "count" : 876,
            "type" : "SCALAR"
        }
    ],
    "bufferViews" : [
        {
            "buffer" : 0,
            "byteLength" : 8112,
            "byteOffset" : 0
        },
        {
            "buffer" : 0,
            "byteLength" : 8112,
            "byteOffset" : 8112
        },
        {
            "buffer" : 0,
            "byteLength" : 5408,
            "byteOffset" : 16224
        },
        {
            "buffer" : 0,
            "byteLength" : 2028,
            "byteOffset" : 21632
        },
        {
            "buffer" : 0,
            "byteLength" : 14976,
            "byteOffset" : 23660
        },
        {
            "buffer" : 0,
            "byteLength" : 14976,
            "byteOffset" : 38636
        },
        {
            "buffer" : 0,
            "byteLength" : 9984,
            "byteOffset" : 53612
        },
        {
            "buffer" : 0,
            "byteLength" : 3744,
            "byteOffset" : 63596
        },
        {
            "buffer" : 0,
            "byteLength" : 5760,
            "byteOffset" : 67340
        },
        {
            "buffer" : 0,
            "byteLength" : 5760,
            "byteOffset" : 73100
        },
        {
            "buffer" : 0,
            "byteLength" : 3840,
            "byteOffset" : 78860
        },
        {
            "buffer" : 0,
            "byteLength" : 1440,
            "byteOffset" : 82700
        },
        {
            "buffer" : 0,
            "byteLength" : 5760,
            "byteOffset" : 84140
        },
        {
            "buffer" : 0,
            "byteLength" : 5760,
            "byteOffset" : 89900
        },
        {
            "buffer" : 0,
            "byteLength" : 3840,
            "byteOffset" : 95660
        },
        {
            "buffer" : 0,
            "byteLength" : 6624,
            "byteOffset" : 99500
        },
        {
            "buffer" : 0,
            "byteLength" : 6624,
            "byteOffset" : 106124
        },
        {
            "buffer" : 0,
            "byteLength" : 4416,
            "byteOffset" : 112748
        },
        {
            "buffer" : 0,
            "byteLength" : 1752,
            "byteOffset" : 117164
        }
    ],
    "buffers" : [
        {
            "byteLength" : 118916,
            "uri" : "bed.bin"
        }
    ]
}
