{
    "asset" : {
        "generator" : "Khronos glTF Blender I/O v1.3.48",
        "version" : "2.0"
    },
    "scene" : 0,
    "scenes" : [
        {
            "name" : "Scene",
            "nodes" : [
                0,
                1
            ]
        }
    ],
    "nodes" : [
        {
            "mesh" : 0,
            "name" : "kimchbowl",
            "rotation" : [
                0,
                1,
                0,
                -1.6292068494294654e-07
            ],
            "scale" : [
                0.19999998807907104,
                0.19999998807907104,
                0.19999998807907104
            ],
            "translation" : [
                0.005363180302083492,
                0,
                -0.01931113190948963
            ]
        },
        {
            "mesh" : 1,
            "name" : "Chicken",
            "rotation" : [
                0.03612402081489563,
                0.5671270489692688,
                -0.8227072358131409,
                0.014661313965916634
            ],
            "scale" : [
                0.026069970801472664,
                0.026069974526762962,
                0.026069970801472664
            ],
            "translation" : [
                0.04174356162548065,
                0.08847858756780624,
                -0.010785385966300964
            ]
        }
    ],
    "materials" : [
        {
            "doubleSided" : true,
            "emissiveFactor" : [
                0,
                0,
                0
            ],
            "name" : "Material.002",
            "pbrMetallicRoughness" : {
                "baseColorTexture" : {
                    "index" : 0,
                    "texCoord" : 0
                },
                "metallicFactor" : 0,
                "roughnessFactor" : 0.5
            }
        },
        {
            "doubleSided" : true,
            "emissiveFactor" : [
                0,
                0,
                0
            ],
            "name" : "Material",
            "pbrMetallicRoughness" : {
                "baseColorTexture" : {
                    "index" : 1,
                    "texCoord" : 0
                },
                "metallicFactor" : 0,
                "roughnessFactor" : 0.5
            }
        },
        {
            "doubleSided" : true,
            "emissiveFactor" : [
                0,
                0,
                0
            ],
            "name" : "Material.006",
            "pbrMetallicRoughness" : {
                "baseColorTexture" : {
                    "index" : 2,
                    "texCoord" : 0
                },
                "metallicFactor" : 0,
                "roughnessFactor" : 0.5
            }
        }
    ],
    "meshes" : [
        {
            "name" : "Cylinder.001",
            "primitives" : [
                {
                    "attributes" : {
                        "POSITION" : 0,
                        "NORMAL" : 1,
                        "TEXCOORD_0" : 2
                    },
                    "indices" : 3,
                    "material" : 0
                }
            ]
        },
        {
            "name" : "Chicken",
            "primitives" : [
                {
                    "attributes" : {
                        "POSITION" : 4,
                        "NORMAL" : 5,
                        "TEXCOORD_0" : 6
                    },
                    "indices" : 7,
                    "material" : 1
                },
                {
                    "attributes" : {
                        "POSITION" : 8,
                        "NORMAL" : 9,
                        "TEXCOORD_0" : 10
                    },
                    "indices" : 11,
                    "material" : 2
                }
            ]
        }
    ],
    "textures" : [
        {
            "source" : 0
        },
        {
            "source" : 0
        },
        {
            "source" : 0
        }
    ],
    "images" : [
        {
            "mimeType" : "image/png",
            "name" : "food_tex",
            "uri" : "textures/food_tex.png"
        }
    ],
    "accessors" : [
        {
            "bufferView" : 0,
            "componentType" : 5126,
            "count" : 126,
            "max" : [
                0.6956993937492371,
                0.5595459342002869,
                0.6956994533538818
            ],
            "min" : [
                -0.6956993937492371,
                0.1356971263885498,
                -0.6956993937492371
            ],
            "type" : "VEC3"
        },
        {
            "bufferView" : 1,
            "componentType" : 5126,
            "count" : 126,
            "type" : "VEC3"
        },
        {
            "bufferView" : 2,
            "componentType" : 5126,
            "count" : 126,
            "type" : "VEC2"
        },
        {
            "bufferView" : 3,
            "componentType" : 5123,
            "count" : 348,
            "type" : "SCALAR"
        },
        {
            "bufferView" : 4,
            "componentType" : 5126,
            "count" : 832,
            "max" : [
                6.805245876312256,
                3.362853527069092,
                1.7696912288665771
            ],
            "min" : [
                -1.7254962921142578,
                -4.178525447845459,
                -2.08083176612854
            ],
            "type" : "VEC3"
        },
        {
            "bufferView" : 5,
            "componentType" : 5126,
            "count" : 832,
            "type" : "VEC3"
        },
        {
            "bufferView" : 6,
            "componentType" : 5126,
            "count" : 832,
            "type" : "VEC2"
        },
        {
            "bufferView" : 7,
            "componentType" : 5123,
            "count" : 1248,
            "type" : "SCALAR"
        },
        {
            "bufferView" : 8,
            "componentType" : 5126,
            "count" : 512,
            "max" : [
                8.250447273254395,
                -3.2390003204345703,
                0.5182555913925171
            ],
            "min" : [
                -0.5592324137687683,
                -7.7224555015563965,
                -2.2463366985321045
            ],
            "type" : "VEC3"
        },
        {
            "bufferView" : 9,
            "componentType" : 5126,
            "count" : 512,
            "type" : "VEC3"
        },
        {
            "bufferView" : 10,
            "componentType" : 5126,
            "count" : 512,
            "type" : "VEC2"
        },
        {
            "bufferView" : 11,
            "componentType" : 5123,
            "count" : 768,
            "type" : "SCALAR"
        }
    ],
    "bufferViews" : [
        {
            "buffer" : 0,
            "byteLength" : 1512,
            "byteOffset" : 0
        },
        {
            "buffer" : 0,
            "byteLength" : 1512,
            "byteOffset" : 1512
        },
        {
            "buffer" : 0,
            "byteLength" : 1008,
            "byteOffset" : 3024
        },
        {
            "buffer" : 0,
            "byteLength" : 696,
            "byteOffset" : 4032
        },
        {
            "buffer" : 0,
            "byteLength" : 9984,
            "byteOffset" : 4728
        },
        {
            "buffer" : 0,
            "byteLength" : 9984,
            "byteOffset" : 14712
        },
        {
            "buffer" : 0,
            "byteLength" : 6656,
            "byteOffset" : 24696
        },
        {
            "buffer" : 0,
            "byteLength" : 2496,
            "byteOffset" : 31352
        },
        {
            "buffer" : 0,
            "byteLength" : 6144,
            "byteOffset" : 33848
        },
        {
            "buffer" : 0,
            "byteLength" : 6144,
            "byteOffset" : 39992
        },
        {
            "buffer" : 0,
            "byteLength" : 4096,
            "byteOffset" : 46136
        },
        {
            "buffer" : 0,
            "byteLength" : 1536,
            "byteOffset" : 50232
        }
    ],
    "buffers" : [
        {
            "byteLength" : 51768,
            "uri" : "chickenleg.bin"
        }
    ]
}
