{
    "asset" : {
        "generator" : "Khronos glTF Blender I/O v1.3.48",
        "version" : "2.0"
    },
    "scene" : 0,
    "scenes" : [
        {
            "name" : "Scene",
            "nodes" : [
                0
            ]
        }
    ],
    "nodes" : [
        {
            "mesh" : 0,
            "name" : "sofa",
            "rotation" : [
                0,
                0.7071068286895752,
                0,
                0.7071068286895752
            ],
            "scale" : [
                1.082400918006897,
                1.6343859434127808,
                1.3769868612289429
            ],
            "translation" : [
                -0.45640671253204346,
                0.2779634892940521,
                1.114435076713562
            ]
        }
    ],
    "materials" : [
        {
            "doubleSided" : true,
            "emissiveFactor" : [
                0,
                0,
                0
            ],
            "name" : "Material.001",
            "pbrMetallicRoughness" : {
                "baseColorTexture" : {
                    "index" : 0,
                    "texCoord" : 0
                },
                "metallicFactor" : 0,
                "roughnessFactor" : 0.5
            }
        }
    ],
    "meshes" : [
        {
            "name" : "Cube.001",
            "primitives" : [
                {
                    "attributes" : {
                        "POSITION" : 0,
                        "NORMAL" : 1,
                        "TEXCOORD_0" : 2
                    },
                    "indices" : 3,
                    "material" : 0
                }
            ]
        }
    ],
    "textures" : [
        {
            "source" : 0
        }
    ],
    "images" : [
        {
            "mimeType" : "image/png",
            "name" : "sofa",
            "uri" : "sofa.png"
        }
    ],
    "accessors" : [
        {
            "bufferView" : 0,
            "componentType" : 5126,
            "count" : 1028,
            "max" : [
                0.8845125436782837,
                0.4561919867992401,
                0.2891273498535156
            ],
            "min" : [
                -0.8845125436782837,
                -0.1482725888490677,
                -0.2536235451698303
            ],
            "type" : "VEC3"
        },
        {
            "bufferView" : 1,
            "componentType" : 5126,
            "count" : 1028,
            "type" : "VEC3"
        },
        {
            "bufferView" : 2,
            "componentType" : 5126,
            "count" : 1028,
            "type" : "VEC2"
        },
        {
            "bufferView" : 3,
            "componentType" : 5123,
            "count" : 1668,
            "type" : "SCALAR"
        }
    ],
    "bufferViews" : [
        {
            "buffer" : 0,
            "byteLength" : 12336,
            "byteOffset" : 0
        },
        {
            "buffer" : 0,
            "byteLength" : 12336,
            "byteOffset" : 12336
        },
        {
            "buffer" : 0,
            "byteLength" : 8224,
            "byteOffset" : 24672
        },
        {
            "buffer" : 0,
            "byteLength" : 3336,
            "byteOffset" : 32896
        }
    ],
    "buffers" : [
        {
            "byteLength" : 36232,
            "uri" : "ssofa.bin"
        }
    ]
}
