{
    "asset" : {
        "generator" : "Khronos glTF Blender I/O v1.3.48",
        "version" : "2.0"
    },
    "scene" : 0,
    "scenes" : [
        {
            "name" : "Scene",
            "nodes" : [
                0,
                1
            ]
        }
    ],
    "nodes" : [
        {
            "mesh" : 0,
            "name" : "kimchbowl",
            "rotation" : [
                0,
                1,
                0,
                -1.6292068494294654e-07
            ],
            "scale" : [
                0.19999998807907104,
                0.19999998807907104,
                0.19999998807907104
            ],
            "translation" : [
                0.005363180302083492,
                0,
                -0.01931113190948963
            ]
        },
        {
            "mesh" : 1,
            "name" : "carotes",
            "rotation" : [
                0.36896711587905884,
                0.45076319575309753,
                -0.1772851049900055,
                0.7932501435279846
            ],
            "scale" : [
                0.02359558641910553,
                0.023595578968524933,
                0.02359558641910553
            ],
            "translation" : [
                0.011539258062839508,
                0.07405794411897659,
                -0.008079661056399345
            ]
        }
    ],
    "materials" : [
        {
            "doubleSided" : true,
            "emissiveFactor" : [
                0,
                0,
                0
            ],
            "name" : "Material.002",
            "pbrMetallicRoughness" : {
                "baseColorTexture" : {
                    "index" : 0,
                    "texCoord" : 0
                },
                "metallicFactor" : 0,
                "roughnessFactor" : 0.5
            }
        },
        {
            "doubleSided" : true,
            "emissiveFactor" : [
                0,
                0,
                0
            ],
            "name" : "Material.007",
            "pbrMetallicRoughness" : {
                "baseColorTexture" : {
                    "index" : 1,
                    "texCoord" : 0
                },
                "metallicFactor" : 0,
                "roughnessFactor" : 0.5
            }
        },
        {
            "doubleSided" : true,
            "emissiveFactor" : [
                0,
                0,
                0
            ],
            "name" : "Material.009",
            "pbrMetallicRoughness" : {
                "baseColorTexture" : {
                    "index" : 2,
                    "texCoord" : 0
                },
                "metallicFactor" : 0,
                "roughnessFactor" : 0.5
            }
        }
    ],
    "meshes" : [
        {
            "name" : "Cylinder.001",
            "primitives" : [
                {
                    "attributes" : {
                        "POSITION" : 0,
                        "NORMAL" : 1,
                        "TEXCOORD_0" : 2
                    },
                    "indices" : 3,
                    "material" : 0
                }
            ]
        },
        {
            "name" : "Cube.008",
            "primitives" : [
                {
                    "attributes" : {
                        "POSITION" : 4,
                        "NORMAL" : 5,
                        "TEXCOORD_0" : 6
                    },
                    "indices" : 7,
                    "material" : 1
                },
                {
                    "attributes" : {
                        "POSITION" : 8,
                        "NORMAL" : 9,
                        "TEXCOORD_0" : 10
                    },
                    "indices" : 11,
                    "material" : 2
                }
            ]
        }
    ],
    "textures" : [
        {
            "source" : 0
        },
        {
            "source" : 0
        },
        {
            "source" : 0
        }
    ],
    "images" : [
        {
            "mimeType" : "image/png",
            "name" : "food_tex",
            "uri" : "textures/food_tex.png"
        }
    ],
    "accessors" : [
        {
            "bufferView" : 0,
            "componentType" : 5126,
            "count" : 126,
            "max" : [
                0.6956993937492371,
                0.5595459342002869,
                0.6956994533538818
            ],
            "min" : [
                -0.6956993937492371,
                0.1356971263885498,
                -0.6956993937492371
            ],
            "type" : "VEC3"
        },
        {
            "bufferView" : 1,
            "componentType" : 5126,
            "count" : 126,
            "type" : "VEC3"
        },
        {
            "bufferView" : 2,
            "componentType" : 5126,
            "count" : 126,
            "type" : "VEC2"
        },
        {
            "bufferView" : 3,
            "componentType" : 5123,
            "count" : 348,
            "type" : "SCALAR"
        },
        {
            "bufferView" : 4,
            "componentType" : 5126,
            "count" : 640,
            "max" : [
                3.6660995483398438,
                2.164327383041382,
                2.3267102241516113
            ],
            "min" : [
                -3.4035117626190186,
                -3.161672830581665,
                -4.898185729980469
            ],
            "type" : "VEC3"
        },
        {
            "bufferView" : 5,
            "componentType" : 5126,
            "count" : 640,
            "type" : "VEC3"
        },
        {
            "bufferView" : 6,
            "componentType" : 5126,
            "count" : 640,
            "type" : "VEC2"
        },
        {
            "bufferView" : 7,
            "componentType" : 5123,
            "count" : 960,
            "type" : "SCALAR"
        },
        {
            "bufferView" : 8,
            "componentType" : 5126,
            "count" : 6750,
            "max" : [
                2.965275287628174,
                2.910332441329956,
                3.233403205871582
            ],
            "min" : [
                -2.548783779144287,
                -1.5541898012161255,
                -1.6791796684265137
            ],
            "type" : "VEC3"
        },
        {
            "bufferView" : 9,
            "componentType" : 5126,
            "count" : 6750,
            "type" : "VEC3"
        },
        {
            "bufferView" : 10,
            "componentType" : 5126,
            "count" : 6750,
            "type" : "VEC2"
        },
        {
            "bufferView" : 11,
            "componentType" : 5123,
            "count" : 8100,
            "type" : "SCALAR"
        }
    ],
    "bufferViews" : [
        {
            "buffer" : 0,
            "byteLength" : 1512,
            "byteOffset" : 0
        },
        {
            "buffer" : 0,
            "byteLength" : 1512,
            "byteOffset" : 1512
        },
        {
            "buffer" : 0,
            "byteLength" : 1008,
            "byteOffset" : 3024
        },
        {
            "buffer" : 0,
            "byteLength" : 696,
            "byteOffset" : 4032
        },
        {
            "buffer" : 0,
            "byteLength" : 7680,
            "byteOffset" : 4728
        },
        {
            "buffer" : 0,
            "byteLength" : 7680,
            "byteOffset" : 12408
        },
        {
            "buffer" : 0,
            "byteLength" : 5120,
            "byteOffset" : 20088
        },
        {
            "buffer" : 0,
            "byteLength" : 1920,
            "byteOffset" : 25208
        },
        {
            "buffer" : 0,
            "byteLength" : 81000,
            "byteOffset" : 27128
        },
        {
            "buffer" : 0,
            "byteLength" : 81000,
            "byteOffset" : 108128
        },
        {
            "buffer" : 0,
            "byteLength" : 54000,
            "byteOffset" : 189128
        },
        {
            "buffer" : 0,
            "byteLength" : 16200,
            "byteOffset" : 243128
        }
    ],
    "buffers" : [
        {
            "byteLength" : 259328,
            "uri" : "veg.bin"
        }
    ]
}
